<?xml version="1.0" encoding="UTF-8" standalone="no"?>
<!-- Created with Inkscape (http://www.inkscape.org/) -->

<svg
   xmlns:dc="http://purl.org/dc/elements/1.1/"
   xmlns:cc="http://creativecommons.org/ns#"
   xmlns:rdf="http://www.w3.org/1999/02/22-rdf-syntax-ns#"
   xmlns:svg="http://www.w3.org/2000/svg"
   xmlns="http://www.w3.org/2000/svg"
   xmlns:sodipodi="http://sodipodi.sourceforge.net/DTD/sodipodi-0.dtd"
   xmlns:inkscape="http://www.inkscape.org/namespaces/inkscape"
   width="212.04929mm"
   height="282.22223mm"
   viewBox="0 0 751.35574 1000"
   id="svg10199"
   version="1.1"
   inkscape:version="0.91 r"
   sodipodi:docname="leaf.svg">
  <defs
     id="defs10201" />
  <sodipodi:namedview
     id="base"
     pagecolor="#ffffff"
     bordercolor="#666666"
     borderopacity="1.0"
     inkscape:pageopacity="0.0"
     inkscape:pageshadow="2"
     inkscape:zoom="0.35"
     inkscape:cx="-417.28229"
     inkscape:cy="616.83871"
     inkscape:document-units="px"
     inkscape:current-layer="layer1"
     showgrid="false"
     fit-margin-top="0"
     fit-margin-left="0"
     fit-margin-right="0"
     fit-margin-bottom="0" />
  <metadata
     id="metadata10204">
    <rdf:RDF>
      <cc:Work
         rdf:about="">
        <dc:format>image/svg+xml</dc:format>
        <dc:type
           rdf:resource="http://purl.org/dc/dcmitype/StillImage" />
        <dc:title></dc:title>
      </cc:Work>
    </rdf:RDF>
  </metadata>
  <g
     inkscape:label="Layer 1"
     inkscape:groupmode="layer"
     id="layer1"
     transform="translate(-56.568,-149.20091)">
    <g
       id="g5927"
       transform="matrix(7.6440717,0,0,7.6440717,-5499.2329,-4120.3626)">
      <path
         inkscape:connector-curvature="0"
         id="path2992"
         sodipodi:nodetypes="cssccssc"
         style="fill:#f0f0f0;fill-opacity:1;stroke:#505050;stroke-width:2;stroke-miterlimit:4;stroke-dasharray:none;stroke-opacity:1"
         d="m 733.07673,685.37143 c -6.47438,-19.58534 -5.20068,-43.69839 9.39686,-59.24953 14.31216,-15.24565 34.69505,-22.2773 51.87763,-33.65121 12.30512,-8.14321 23.9565,-18.60952 29.19422,-32.74917 1.69783,-1.51367 -1.01558,6.3382 -1.03044,8.18983 -5.63172,29.17461 -11.42414,59.25823 -27.08951,84.95386 -10.04461,16.47597 -26.00066,31.30779 -45.88761,33.72209 -5.49262,0.6669 -11.1174,0.22657 -16.46224,-1.21938 z" />
      <path
         sodipodi:nodetypes="ccccccccccc"
         inkscape:connector-curvature="0"
         id="path2875"
         d="m 733.23207,686.56331 c 2.79487,-2.39503 5.65563,-4.71554 8.3857,-7.18426 13.41034,-12.12597 25.24027,-25.88887 36.50505,-39.9876 6.60093,-8.58607 13.25006,-17.14849 19.20797,-26.20113 l -3.17895,1.45732 c 10e-4,-10e-4 0.002,-0.004 0.003,-0.005 l -0.003,-2.8e-4 -4.0589,1.86204 c -5.67579,8.98017 -12.16223,17.40408 -18.58185,25.85652 -11.12492,14.10785 -22.92807,27.78593 -36.29655,39.8332 -2.7351,2.46471 -5.60272,4.7814 -8.40282,7.17193"
         style="fill:#505050;fill-opacity:1" />
    </g>
  </g>
</svg>
